
<svg version="1.1" xmlns="http://www.w3.org/2000/svg" xmlns:xlink="http://www.w3.org/1999/xlink" x="0" y="0" width="1200" height="322" viewBox="0, 0, 1200, 322">
  <g id="Layer_1">
    <g id="Layer_1">
      <g>
        <path d="M33.722,83.8 L175.816,83.8 L175.816,31.996 L33.722,31.996 z" fill="#58A229"/>
        <path d="M33.722,83.8 L175.816,83.8 L175.816,31.996 L33.722,31.996 z" fill-opacity="0" stroke="#58A229" stroke-width="1.535"/>
      </g>
      <path d="M55.261,45.144 C54.916,44.299 54.801,44.299 53.918,44.299 L47.433,44.299 L47.433,45.489 L48.354,45.489 C51.309,45.489 51.385,45.911 51.385,47.293 L51.385,66.48 C51.385,67.516 51.385,69.32 47.433,69.32 L47.433,70.509 C48.776,70.471 50.656,70.394 51.923,70.394 C53.189,70.394 55.069,70.471 56.413,70.509 L56.413,69.32 C52.46,69.32 52.46,67.516 52.46,66.48 L52.46,45.796 L52.498,45.796 L61.747,69.665 C61.939,70.164 62.13,70.509 62.514,70.509 C62.936,70.509 63.051,70.202 63.205,69.78 L72.645,45.489 L72.684,45.489 L72.684,67.516 C72.684,68.898 72.607,69.32 69.652,69.32 L68.731,69.32 L68.731,70.509 C70.151,70.394 72.76,70.394 74.257,70.394 C75.754,70.394 78.325,70.394 79.745,70.509 L79.745,69.32 L78.824,69.32 C75.869,69.32 75.792,68.898 75.792,67.516 L75.792,47.293 C75.792,45.911 75.869,45.489 78.824,45.489 L79.745,45.489 L79.745,44.299 L73.259,44.299 C72.261,44.299 72.261,44.338 71.993,45.029 L63.589,66.634 z" fill="#FFFFFF"/>
      <path d="M93.97,67.593 C94.124,69.128 95.16,70.74 96.963,70.74 C97.769,70.74 100.11,70.202 100.11,67.094 L100.11,64.945 L99.151,64.945 L99.151,67.094 C99.151,69.32 98.191,69.55 97.769,69.55 C96.503,69.55 96.349,67.823 96.349,67.631 L96.349,59.956 C96.349,58.345 96.349,56.848 94.968,55.428 C93.471,53.931 91.552,53.317 89.71,53.317 C86.564,53.317 83.916,55.121 83.916,57.654 C83.916,58.805 84.683,59.457 85.681,59.457 C86.756,59.457 87.446,58.69 87.446,57.692 C87.446,57.232 87.254,55.965 85.489,55.927 C86.525,54.584 88.406,54.162 89.634,54.162 C91.514,54.162 93.701,55.658 93.701,59.074 L93.701,60.494 C91.744,60.609 89.058,60.724 86.64,61.875 C83.762,63.18 82.803,65.175 82.803,66.864 C82.803,69.972 86.525,70.932 88.943,70.932 C91.476,70.932 93.241,69.397 93.97,67.593 z M93.701,61.299 L93.701,65.137 C93.701,68.783 90.938,70.087 89.212,70.087 C87.331,70.087 85.758,68.744 85.758,66.825 C85.758,64.715 87.37,61.53 93.701,61.299 z" fill="#FFFFFF"/>
      <path d="M108.361,63.065 C109.205,63.218 112.352,63.832 112.352,66.595 C112.352,68.552 111.008,70.087 108.015,70.087 C104.792,70.087 103.41,67.9 102.681,64.638 C102.566,64.139 102.528,63.986 102.144,63.986 C101.645,63.986 101.645,64.254 101.645,64.945 L101.645,70.011 C101.645,70.663 101.645,70.932 102.067,70.932 C102.259,70.932 102.297,70.893 103.027,70.164 C103.103,70.087 103.103,70.011 103.794,69.281 C105.483,70.893 107.209,70.932 108.015,70.932 C112.428,70.932 114.194,68.36 114.194,65.597 C114.194,63.564 113.042,62.412 112.582,61.952 C111.315,60.724 109.819,60.417 108.207,60.11 C106.058,59.688 103.487,59.189 103.487,56.963 C103.487,55.62 104.485,54.047 107.785,54.047 C112.006,54.047 112.198,57.5 112.275,58.69 C112.313,59.035 112.659,59.035 112.735,59.035 C113.234,59.035 113.234,58.843 113.234,58.114 L113.234,54.238 C113.234,53.586 113.234,53.317 112.812,53.317 C112.62,53.317 112.543,53.317 112.045,53.778 C111.929,53.931 111.546,54.277 111.392,54.392 C109.934,53.317 108.361,53.317 107.785,53.317 C103.103,53.317 101.645,55.889 101.645,58.038 C101.645,59.381 102.259,60.455 103.295,61.299 C104.523,62.297 105.598,62.527 108.361,63.065 z" fill="#FFFFFF"/>
      <path d="M122.153,55.159 L127.64,55.159 L127.64,53.97 L122.153,53.97 L122.153,46.909 L121.193,46.909 C121.155,50.056 120.004,54.162 116.243,54.315 L116.243,55.159 L119.505,55.159 L119.505,65.751 C119.505,70.471 123.074,70.932 124.455,70.932 C127.18,70.932 128.254,68.207 128.254,65.751 L128.254,63.564 L127.295,63.564 L127.295,65.674 C127.295,68.514 126.144,69.972 124.724,69.972 C122.153,69.972 122.153,66.48 122.153,65.828 z" fill="#FFFFFF"/>
      <path d="M134.736,60.839 C134.966,55.121 138.189,54.162 139.494,54.162 C143.447,54.162 143.831,59.342 143.831,60.839 z M134.697,61.645 L145.404,61.645 C146.248,61.645 146.363,61.645 146.363,60.839 C146.363,57.04 144.291,53.317 139.494,53.317 C135.043,53.317 131.512,57.27 131.512,62.067 C131.512,67.209 135.542,70.932 139.955,70.932 C144.636,70.932 146.363,66.672 146.363,65.943 C146.363,65.559 146.056,65.482 145.864,65.482 C145.519,65.482 145.442,65.713 145.366,66.02 C144.022,69.972 140.569,69.972 140.185,69.972 C138.266,69.972 136.731,68.821 135.849,67.401 C134.697,65.559 134.697,63.026 134.697,61.645 z" fill="#FFFFFF"/>
      <path d="M153.9,57.769 L153.9,53.548 L148.566,53.97 L148.566,55.159 C151.252,55.159 151.559,55.428 151.559,57.308 L151.559,67.593 C151.559,69.32 151.137,69.32 148.566,69.32 L148.566,70.509 C150.063,70.471 151.866,70.394 152.941,70.394 C154.476,70.394 156.279,70.394 157.814,70.509 L157.814,69.32 L157.008,69.32 C154.169,69.32 154.092,68.898 154.092,67.516 L154.092,61.606 C154.092,57.807 155.704,54.392 158.62,54.392 C158.889,54.392 158.966,54.392 159.042,54.43 C158.927,54.469 158.16,54.929 158.16,55.927 C158.16,57.001 158.966,57.577 159.81,57.577 C160.501,57.577 161.46,57.117 161.46,55.889 C161.46,54.661 160.27,53.548 158.62,53.548 C155.819,53.548 154.437,56.119 153.9,57.769 z" fill="#FFFFFF"/>
      <g>
        <path d="M377.335,57.898 C377.335,32.825 357.01,12.5 331.937,12.5 C306.865,12.5 286.54,32.825 286.54,57.898 C286.54,82.97 306.865,103.295 331.937,103.295 C357.01,103.295 377.335,82.97 377.335,57.898 z M331.937,57.898" fill="#0055B7"/>
        <path d="M377.335,57.898 C377.335,32.825 357.01,12.5 331.937,12.5 C306.865,12.5 286.54,32.825 286.54,57.898 C286.54,82.97 306.865,103.295 331.937,103.295 C357.01,103.295 377.335,82.97 377.335,57.898 z M331.937,57.898" fill-opacity="0" stroke="#0C2344" stroke-width="1.535"/>
      </g>
      <path d="M338.278,40.962 C338.278,40.846 338.201,40.578 337.856,40.578 C337.74,40.578 337.702,40.616 337.28,41.038 L334.594,43.993 C334.248,43.456 332.483,40.578 328.223,40.578 C319.666,40.578 311.032,49.059 311.032,57.962 C311.032,64.293 315.56,68.476 321.431,68.476 C324.77,68.476 327.686,66.941 329.72,65.176 C333.289,62.029 333.941,58.537 333.941,58.422 C333.941,58.038 333.558,58.038 333.481,58.038 C333.251,58.038 333.059,58.115 332.982,58.422 C332.637,59.535 331.754,62.26 329.106,64.485 C326.458,66.634 324.041,67.287 322.045,67.287 C318.591,67.287 314.524,65.291 314.524,59.305 C314.524,57.117 315.329,50.901 319.167,46.411 C321.508,43.686 325.115,41.767 328.53,41.767 C332.445,41.767 334.709,44.722 334.709,49.174 C334.709,50.709 334.594,50.747 334.594,51.131 C334.594,51.515 335.016,51.515 335.169,51.515 C335.668,51.515 335.668,51.438 335.86,50.747 z" fill="#FFFFFF"/>
      <path d="M350.403,64.818 C350.403,61.863 350.054,59.741 348.818,57.86 C347.985,56.625 346.32,55.55 344.171,55.55 C337.939,55.55 337.939,62.884 337.939,64.818 C337.939,66.752 337.939,73.924 344.171,73.924 C350.403,73.924 350.403,66.752 350.403,64.818 z M344.171,73.172 C342.935,73.172 341.297,72.447 340.759,70.244 C340.383,68.659 340.383,66.456 340.383,64.468 C340.383,62.508 340.383,60.466 340.786,58.989 C341.35,56.866 343.07,56.302 344.171,56.302 C345.622,56.302 347.018,57.189 347.502,58.747 C347.932,60.197 347.959,62.131 347.959,64.468 C347.959,66.456 347.959,68.444 347.609,70.136 C347.072,72.581 345.246,73.172 344.171,73.172 z" fill="#FFFFFF"/>
      <g>
        <path d="M578.854,57.898 C578.854,32.825 558.529,12.5 533.456,12.5 C508.384,12.5 488.059,32.825 488.059,57.898 C488.059,82.97 508.384,103.295 533.456,103.295 C558.529,103.295 578.854,82.97 578.854,57.898 z M533.456,57.898" fill="#0055B7"/>
        <path d="M578.854,57.898 C578.854,32.825 558.529,12.5 533.456,12.5 C508.384,12.5 488.059,32.825 488.059,57.898 C488.059,82.97 508.384,103.295 533.456,103.295 C558.529,103.295 578.854,82.97 578.854,57.898 z M533.456,57.898" fill-opacity="0" stroke="#0C2344" stroke-width="1.535"/>
      </g>
      <path d="M539.793,40.962 C539.793,40.846 539.717,40.578 539.371,40.578 C539.256,40.578 539.218,40.616 538.796,41.038 L536.109,43.993 C535.764,43.456 533.999,40.578 529.739,40.578 C521.182,40.578 512.547,49.059 512.547,57.962 C512.547,64.293 517.076,68.476 522.947,68.476 C526.285,68.476 529.202,66.941 531.236,65.176 C534.805,62.029 535.457,58.537 535.457,58.422 C535.457,58.038 535.073,58.038 534.997,58.038 C534.766,58.038 534.574,58.115 534.498,58.422 C534.152,59.535 533.27,62.26 530.622,64.485 C527.974,66.634 525.556,67.287 523.561,67.287 C520.107,67.287 516.039,65.291 516.039,59.305 C516.039,57.117 516.845,50.901 520.683,46.411 C523.024,43.686 526.631,41.767 530.046,41.767 C533.96,41.767 536.225,44.722 536.225,49.174 C536.225,50.709 536.109,50.747 536.109,51.131 C536.109,51.515 536.532,51.515 536.685,51.515 C537.184,51.515 537.184,51.438 537.376,50.747 z" fill="#FFFFFF"/>
      <path d="M547.057,56.302 C547.057,55.577 547.003,55.55 546.251,55.55 C544.532,57.243 542.087,57.269 540.986,57.269 L540.986,58.236 C541.631,58.236 543.403,58.236 544.881,57.484 L544.881,71.184 C544.881,72.071 544.881,72.42 542.195,72.42 L541.174,72.42 L541.174,73.387 C541.657,73.36 544.961,73.279 545.955,73.279 C546.788,73.279 550.173,73.36 550.764,73.387 L550.764,72.42 L549.743,72.42 C547.057,72.42 547.057,72.071 547.057,71.184 z" fill="#FFFFFF"/>
      <g>
        <path d="M889.562,57.898 C889.562,32.825 869.237,12.5 844.164,12.5 C819.092,12.5 798.767,32.825 798.767,57.898 C798.767,82.97 819.092,103.295 844.164,103.295 C869.237,103.295 889.562,82.97 889.562,57.898 z M844.164,57.898" fill="#0055B7"/>
        <path d="M889.562,57.898 C889.562,32.825 869.237,12.5 844.164,12.5 C819.092,12.5 798.767,32.825 798.767,57.898 C798.767,82.97 819.092,103.295 844.164,103.295 C869.237,103.295 889.562,82.97 889.562,57.898 z M844.164,57.898" fill-opacity="0" stroke="#0C2344" stroke-width="1.535"/>
      </g>
      <path d="M850.499,40.962 C850.499,40.846 850.422,40.578 850.077,40.578 C849.962,40.578 849.923,40.616 849.501,41.038 L846.815,43.993 C846.469,43.456 844.704,40.578 840.445,40.578 C831.887,40.578 823.253,49.059 823.253,57.962 C823.253,64.293 827.781,68.476 833.652,68.476 C836.991,68.476 839.907,66.941 841.941,65.176 C845.51,62.029 846.162,58.537 846.162,58.422 C846.162,58.038 845.779,58.038 845.702,58.038 C845.472,58.038 845.28,58.115 845.203,58.422 C844.858,59.535 843.975,62.26 841.327,64.485 C838.679,66.634 836.262,67.287 834.266,67.287 C830.812,67.287 826.745,65.291 826.745,59.305 C826.745,57.117 827.551,50.901 831.388,46.411 C833.729,43.686 837.336,41.767 840.752,41.767 C844.666,41.767 846.93,44.722 846.93,49.174 C846.93,50.709 846.815,50.747 846.815,51.131 C846.815,51.515 847.237,51.515 847.39,51.515 C847.889,51.515 847.889,51.438 848.081,50.747 z" fill="#FFFFFF"/>
      <path d="M856.097,64.415 C858.192,64.415 859.696,65.865 859.696,68.74 C859.696,72.071 857.762,73.064 856.204,73.064 C855.13,73.064 852.766,72.769 851.638,71.184 C852.9,71.13 853.195,70.244 853.195,69.68 C853.195,68.82 852.551,68.202 851.718,68.202 C850.966,68.202 850.214,68.659 850.214,69.76 C850.214,72.285 853.008,73.924 856.258,73.924 C859.992,73.924 862.57,71.426 862.57,68.74 C862.57,66.644 860.851,64.549 857.896,63.931 C860.717,62.91 861.738,60.896 861.738,59.257 C861.738,57.135 859.293,55.55 856.312,55.55 C853.33,55.55 851.047,57.001 851.047,59.15 C851.047,60.063 851.638,60.573 852.443,60.573 C853.276,60.573 853.813,59.956 853.813,59.203 C853.813,58.424 853.276,57.86 852.443,57.807 C853.384,56.625 855.237,56.329 856.231,56.329 C857.44,56.329 859.132,56.92 859.132,59.257 C859.132,60.385 858.756,61.621 858.058,62.454 C857.171,63.475 856.419,63.528 855.076,63.609 C854.404,63.663 854.351,63.663 854.216,63.689 C854.163,63.689 853.948,63.743 853.948,64.039 C853.948,64.415 854.189,64.415 854.646,64.415 z" fill="#FFFFFF"/>
      <g>
        <path d="M1200.27,57.898 C1200.27,32.825 1179.945,12.5 1154.873,12.5 C1129.8,12.5 1109.475,32.825 1109.475,57.898 C1109.475,82.97 1129.8,103.295 1154.873,103.295 C1179.945,103.295 1200.27,82.97 1200.27,57.898 z M1154.873,57.898" fill="#0055B7"/>
        <path d="M1200.27,57.898 C1200.27,32.825 1179.945,12.5 1154.873,12.5 C1129.8,12.5 1109.475,32.825 1109.475,57.898 C1109.475,82.97 1129.8,103.295 1154.873,103.295 C1179.945,103.295 1200.27,82.97 1200.27,57.898 z M1154.873,57.898" fill-opacity="0" stroke="#0C2344" stroke-width="1.535"/>
      </g>
      <path d="M1161.204,40.962 C1161.204,40.846 1161.127,40.578 1160.782,40.578 C1160.667,40.578 1160.629,40.616 1160.206,41.038 L1157.52,43.993 C1157.175,43.456 1155.41,40.578 1151.15,40.578 C1142.592,40.578 1133.958,49.059 1133.958,57.962 C1133.958,64.293 1138.486,68.476 1144.358,68.476 C1147.696,68.476 1150.613,66.941 1152.647,65.176 C1156.215,62.029 1156.868,58.537 1156.868,58.422 C1156.868,58.038 1156.484,58.038 1156.407,58.038 C1156.177,58.038 1155.985,58.115 1155.908,58.422 C1155.563,59.535 1154.68,62.26 1152.033,64.485 C1149.385,66.634 1146.967,67.287 1144.972,67.287 C1141.518,67.287 1137.45,65.291 1137.45,59.305 C1137.45,57.117 1138.256,50.901 1142.094,46.411 C1144.434,43.686 1148.042,41.767 1151.457,41.767 C1155.371,41.767 1157.635,44.722 1157.635,49.174 C1157.635,50.709 1157.52,50.747 1157.52,51.131 C1157.52,51.515 1157.942,51.515 1158.096,51.515 C1158.595,51.515 1158.595,51.438 1158.787,50.747 z" fill="#FFFFFF"/>
      <path d="M1163.628,58.398 C1164.998,58.747 1165.804,58.747 1166.234,58.747 C1169.78,58.747 1171.875,56.329 1171.875,55.926 C1171.875,55.631 1171.687,55.55 1171.553,55.55 C1171.499,55.55 1171.445,55.55 1171.338,55.631 C1170.693,55.873 1169.27,56.41 1167.282,56.41 C1166.53,56.41 1165.106,56.356 1163.36,55.685 C1163.091,55.55 1163.037,55.55 1163.011,55.55 C1162.661,55.55 1162.661,55.846 1162.661,56.275 L1162.661,64.2 C1162.661,64.657 1162.661,64.979 1163.091,64.979 C1163.333,64.979 1163.36,64.925 1163.628,64.603 C1164.783,63.125 1166.422,62.91 1167.362,62.91 C1168.974,62.91 1169.699,64.2 1169.834,64.415 C1170.317,65.301 1170.478,66.322 1170.478,67.88 C1170.478,68.686 1170.478,70.271 1169.672,71.453 C1169.001,72.42 1167.846,73.064 1166.53,73.064 C1164.783,73.064 1162.984,72.097 1162.312,70.324 C1163.333,70.405 1163.843,69.734 1163.843,69.008 C1163.843,67.853 1162.849,67.638 1162.5,67.638 C1162.446,67.638 1161.157,67.638 1161.157,69.089 C1161.157,71.506 1163.36,73.924 1166.583,73.924 C1170.022,73.924 1173.03,71.372 1173.03,67.987 C1173.03,64.952 1170.72,62.158 1167.389,62.158 C1166.207,62.158 1164.81,62.454 1163.628,63.475 z" fill="#FFFFFF"/>
      <path d="M487.291,57.898 L379.637,57.898" fill-opacity="0" stroke="#7491A3" stroke-width="1.535"/>
      <path d="M386.852,67.108 C385.394,61.581 382.144,58.972 378.87,57.898 C382.144,56.823 385.394,54.214 386.852,48.688" fill-opacity="0" stroke="#7491A3" stroke-width="1.535" stroke-linecap="round" stroke-linejoin="round"/>
      <path d="M797.999,57.898 L581.157,57.898" fill-opacity="0" stroke="#7491A3" stroke-width="1.535"/>
      <path d="M588.371,67.108 C586.913,61.581 583.663,58.972 580.389,57.898 C583.663,56.823 586.913,54.214 588.371,48.688" fill-opacity="0" stroke="#7491A3" stroke-width="1.535" stroke-linecap="round" stroke-linejoin="round"/>
      <path d="M1108.708,57.898 L891.865,57.898" fill-opacity="0" stroke="#7491A3" stroke-width="1.535"/>
      <path d="M899.079,67.108 C897.621,61.581 894.371,58.972 891.097,57.898 C894.371,56.823 897.621,54.214 899.079,48.688" fill-opacity="0" stroke="#7491A3" stroke-width="1.535" stroke-linecap="round" stroke-linejoin="round"/>
      <g>
        <path d="M0.73,254.216 L208.808,254.216 L208.808,194.524 L0.73,194.524 z" fill="#CB1D38"/>
        <path d="M0.73,254.216 L208.808,254.216 L208.808,194.524 L0.73,194.524 z" fill-opacity="0" stroke="#CB1D38" stroke-width="1.535"/>
      </g>
      <path d="M40.69,220.451 C40.69,212.622 34.895,206.406 27.911,206.406 C21.042,206.406 15.17,212.546 15.17,220.451 C15.17,228.318 21.08,234.304 27.911,234.304 C34.895,234.304 40.69,228.203 40.69,220.451 z M27.949,233.306 C24.265,233.306 19.123,229.929 19.123,219.914 C19.123,209.975 24.726,207.365 27.911,207.365 C31.25,207.365 36.737,210.09 36.737,219.914 C36.737,230.083 31.48,233.306 27.949,233.306 z" fill="#FFFFFF"/>
      <path d="M49.47,219.031 L49.47,216.498 L43.944,216.92 L43.944,218.11 C46.669,218.11 46.937,218.34 46.937,220.029 L46.937,237.988 C46.937,239.715 46.515,239.715 43.944,239.715 L43.944,240.905 C45.249,240.866 47.244,240.79 48.242,240.79 C49.278,240.79 51.235,240.866 52.578,240.905 L52.578,239.715 C50.007,239.715 49.585,239.715 49.585,237.988 L49.585,231.541 L49.585,231.196 C49.777,231.81 51.389,233.882 54.305,233.882 C58.872,233.882 62.863,230.121 62.863,225.171 C62.863,220.297 59.14,216.498 54.842,216.498 C51.849,216.498 50.237,218.187 49.47,219.031 z M49.585,229.085 L49.585,220.528 C50.698,218.571 52.578,217.458 54.535,217.458 C57.337,217.458 59.678,220.835 59.678,225.171 C59.678,229.814 56.991,233.038 54.152,233.038 C52.617,233.038 51.158,232.27 50.122,230.697 C49.585,229.891 49.585,229.853 49.585,229.085 z" fill="#FFFFFF"/>
      <path d="M69.755,225.094 C69.755,218.839 72.902,217.227 74.936,217.227 C75.281,217.227 77.699,217.266 79.042,218.647 C77.468,218.762 77.238,219.914 77.238,220.413 C77.238,221.41 77.929,222.178 79.003,222.178 C80.001,222.178 80.769,221.525 80.769,220.374 C80.769,217.765 77.852,216.268 74.897,216.268 C70.1,216.268 66.57,220.413 66.57,225.171 C66.57,230.083 70.369,233.882 74.82,233.882 C79.963,233.882 81.191,229.277 81.191,228.893 C81.191,228.51 80.807,228.51 80.692,228.51 C80.346,228.51 80.27,228.663 80.193,228.893 C79.08,232.462 76.586,232.923 75.166,232.923 C73.132,232.923 69.755,231.273 69.755,225.094 z" fill="#FFFFFF"/>
      <path d="M89.111,216.498 L83.739,216.92 L83.739,218.11 C86.233,218.11 86.578,218.34 86.578,220.221 L86.578,230.543 C86.578,232.27 86.156,232.27 83.585,232.27 L83.585,233.46 C84.813,233.422 86.885,233.345 87.806,233.345 C89.15,233.345 90.493,233.422 91.797,233.46 L91.797,232.27 C89.265,232.27 89.111,232.078 89.111,230.582 z M89.265,209.821 C89.265,208.593 88.305,207.787 87.231,207.787 C86.041,207.787 85.197,208.823 85.197,209.821 C85.197,210.857 86.041,211.855 87.231,211.855 C88.305,211.855 89.265,211.049 89.265,209.821 z" fill="#FFFFFF"/>
      <path d="M111.054,225.248 C111.054,220.336 107.216,216.268 102.573,216.268 C97.776,216.268 94.054,220.451 94.054,225.248 C94.054,230.198 98.045,233.882 102.535,233.882 C107.178,233.882 111.054,230.121 111.054,225.248 z M102.573,232.923 C100.923,232.923 99.234,232.117 98.198,230.352 C97.239,228.663 97.239,226.322 97.239,224.941 C97.239,223.444 97.239,221.372 98.16,219.683 C99.196,217.918 101,217.112 102.535,217.112 C104.223,217.112 105.873,217.957 106.871,219.607 C107.869,221.257 107.869,223.483 107.869,224.941 C107.869,226.322 107.869,228.395 107.025,230.083 C106.18,231.81 104.492,232.923 102.573,232.923 z" fill="#FFFFFF"/>
      <path d="M116.388,220.259 L116.388,230.544 C116.388,232.27 115.966,232.27 113.395,232.27 L113.395,233.46 C114.738,233.422 116.695,233.345 117.731,233.345 C118.729,233.345 120.724,233.422 122.029,233.46 L122.029,232.27 C119.458,232.27 119.036,232.27 119.036,230.544 L119.036,223.483 C119.036,219.492 121.761,217.343 124.217,217.343 C126.634,217.343 127.056,219.415 127.056,221.602 L127.056,230.544 C127.056,232.27 126.634,232.27 124.063,232.27 L124.063,233.46 C125.406,233.422 127.363,233.345 128.399,233.345 C129.397,233.345 131.393,233.422 132.697,233.46 L132.697,232.27 C130.702,232.27 129.743,232.27 129.704,231.119 L129.704,223.79 C129.704,220.489 129.704,219.3 128.515,217.918 C127.977,217.266 126.711,216.498 124.485,216.498 C121.684,216.498 119.88,218.148 118.806,220.528 L118.806,216.498 L113.395,216.92 L113.395,218.11 C116.081,218.11 116.388,218.379 116.388,220.259 z" fill="#FFFFFF"/>
      <path d="M146.267,230.543 C146.42,232.078 147.456,233.69 149.26,233.69 C150.066,233.69 152.407,233.153 152.407,230.045 L152.407,227.896 L151.447,227.896 L151.447,230.045 C151.447,232.27 150.488,232.501 150.066,232.501 C148.799,232.501 148.646,230.774 148.646,230.582 L148.646,222.907 C148.646,221.295 148.646,219.799 147.264,218.379 C145.768,216.882 143.849,216.268 142.007,216.268 C138.86,216.268 136.213,218.072 136.213,220.604 C136.213,221.756 136.98,222.408 137.978,222.408 C139.052,222.408 139.743,221.641 139.743,220.643 C139.743,220.182 139.551,218.916 137.786,218.878 C138.822,217.534 140.702,217.112 141.93,217.112 C143.811,217.112 145.998,218.609 145.998,222.024 L145.998,223.444 C144.041,223.559 141.355,223.674 138.937,224.826 C136.059,226.13 135.1,228.126 135.1,229.814 C135.1,232.923 138.822,233.882 141.24,233.882 C143.772,233.882 145.538,232.347 146.267,230.543 z M145.998,224.25 L145.998,228.087 C145.998,231.733 143.235,233.038 141.508,233.038 C139.628,233.038 138.055,231.695 138.055,229.776 C138.055,227.665 139.666,224.48 145.998,224.25 z" fill="#FFFFFF"/>
      <path d="M159.468,206.828 L153.942,207.25 L153.942,208.44 C156.628,208.44 156.935,208.708 156.935,210.589 L156.935,230.543 C156.935,232.27 156.513,232.27 153.942,232.27 L153.942,233.46 C155.208,233.422 157.242,233.345 158.201,233.345 C159.161,233.345 161.041,233.422 162.461,233.46 L162.461,232.27 C159.89,232.27 159.468,232.27 159.468,230.543 z" fill="#FFFFFF"/>
      <path d="M167.634,223.79 C167.864,218.072 171.088,217.112 172.392,217.112 C176.345,217.112 176.729,222.293 176.729,223.79 z M167.596,224.595 L178.302,224.595 C179.146,224.595 179.262,224.595 179.262,223.79 C179.262,219.99 177.189,216.268 172.392,216.268 C167.941,216.268 164.41,220.221 164.41,225.018 C164.41,230.16 168.44,233.882 172.853,233.882 C177.535,233.882 179.262,229.622 179.262,228.893 C179.262,228.51 178.954,228.433 178.763,228.433 C178.417,228.433 178.34,228.663 178.264,228.97 C176.921,232.923 173.467,232.923 173.083,232.923 C171.164,232.923 169.629,231.771 168.747,230.352 C167.596,228.51 167.596,225.977 167.596,224.595 z" fill="#FFFFFF"/>
      <path d="M188.372,226.015 C189.216,226.169 192.363,226.783 192.363,229.546 C192.363,231.503 191.02,233.038 188.026,233.038 C184.803,233.038 183.421,230.85 182.692,227.589 C182.577,227.09 182.539,226.936 182.155,226.936 C181.656,226.936 181.656,227.205 181.656,227.896 L181.656,232.961 C181.656,233.613 181.656,233.882 182.078,233.882 C182.27,233.882 182.308,233.844 183.038,233.115 C183.114,233.038 183.114,232.961 183.805,232.232 C185.494,233.844 187.22,233.882 188.026,233.882 C192.439,233.882 194.205,231.311 194.205,228.548 C194.205,226.514 193.053,225.363 192.593,224.902 C191.327,223.674 189.83,223.367 188.218,223.06 C186.069,222.638 183.498,222.139 183.498,219.914 C183.498,218.571 184.496,216.997 187.796,216.997 C192.017,216.997 192.209,220.451 192.286,221.641 C192.324,221.986 192.67,221.986 192.746,221.986 C193.245,221.986 193.245,221.794 193.245,221.065 L193.245,217.189 C193.245,216.537 193.245,216.268 192.823,216.268 C192.631,216.268 192.555,216.268 192.056,216.729 C191.941,216.882 191.557,217.227 191.403,217.343 C189.945,216.268 188.372,216.268 187.796,216.268 C183.114,216.268 181.656,218.839 181.656,220.988 C181.656,222.331 182.27,223.406 183.306,224.25 C184.534,225.248 185.609,225.478 188.372,226.015 z" fill="#FFFFFF"/>
      <g>
        <path d="M721.35,200.393 C721.35,175.32 701.025,154.996 675.952,154.996 C650.879,154.996 630.555,175.32 630.555,200.393 C630.555,225.466 650.879,245.791 675.952,245.791 C701.025,245.791 721.35,225.466 721.35,200.393 z M675.952,200.393" fill="#0055B7"/>
        <path d="M721.35,200.393 C721.35,175.32 701.025,154.996 675.952,154.996 C650.879,154.996 630.555,175.32 630.555,200.393 C630.555,225.466 650.879,245.791 675.952,245.791 C701.025,245.791 721.35,225.466 721.35,200.393 z M675.952,200.393" fill-opacity="0" stroke="#0C2344" stroke-width="1.535"/>
      </g>
      <path d="M682.29,183.455 C682.29,183.34 682.214,183.071 681.868,183.071 C681.753,183.071 681.715,183.109 681.293,183.531 L678.606,186.486 C678.261,185.949 676.496,183.071 672.236,183.071 C663.679,183.071 655.044,191.552 655.044,200.455 C655.044,206.787 659.572,210.969 665.444,210.969 C668.782,210.969 671.699,209.434 673.733,207.669 C677.302,204.522 677.954,201.03 677.954,200.915 C677.954,200.531 677.57,200.531 677.494,200.531 C677.263,200.531 677.071,200.608 676.995,200.915 C676.649,202.028 675.767,204.753 673.119,206.978 C670.471,209.127 668.053,209.78 666.058,209.78 C662.604,209.78 658.536,207.784 658.536,201.798 C658.536,199.61 659.342,193.394 663.18,188.904 C665.521,186.179 669.128,184.261 672.543,184.261 C676.457,184.261 678.722,187.215 678.722,191.667 C678.722,193.202 678.606,193.24 678.606,193.624 C678.606,194.008 679.029,194.008 679.182,194.008 C679.681,194.008 679.681,193.931 679.873,193.24 z" fill="#FFFFFF"/>
      <path d="M694.116,210.991 L693.203,210.991 C693.123,211.582 692.854,213.167 692.505,213.435 C692.29,213.597 690.221,213.597 689.845,213.597 L684.903,213.597 C687.723,211.098 688.663,210.346 690.275,209.084 C692.263,207.499 694.116,205.833 694.116,203.281 C694.116,200.031 691.269,198.043 687.831,198.043 C684.5,198.043 682.243,200.38 682.243,202.852 C682.243,204.222 683.398,204.356 683.667,204.356 C684.312,204.356 685.091,203.899 685.091,202.932 C685.091,202.449 684.903,201.509 683.506,201.509 C684.339,199.601 686.165,199.01 687.428,199.01 C690.114,199.01 691.511,201.106 691.511,203.281 C691.511,205.619 689.845,207.472 688.986,208.439 L682.512,214.832 C682.243,215.074 682.243,215.128 682.243,215.88 L693.311,215.88 z" fill="#FFFFFF"/>
      <g>
        <path d="M1032.058,200.393 C1032.058,175.32 1011.733,154.996 986.66,154.996 C961.588,154.996 941.263,175.32 941.263,200.393 C941.263,225.466 961.588,245.791 986.66,245.791 C1011.733,245.791 1032.058,225.466 1032.058,200.393 z M986.66,200.393" fill="#0055B7"/>
        <path d="M1032.058,200.393 C1032.058,175.32 1011.733,154.996 986.66,154.996 C961.588,154.996 941.263,175.32 941.263,200.393 C941.263,225.466 961.588,245.791 986.66,245.791 C1011.733,245.791 1032.058,225.466 1032.058,200.393 z M986.66,200.393" fill-opacity="0" stroke="#0C2344" stroke-width="1.535"/>
      </g>
      <path d="M992.992,183.455 C992.992,183.34 992.915,183.071 992.57,183.071 C992.455,183.071 992.416,183.109 991.994,183.531 L989.308,186.486 C988.963,185.949 987.197,183.071 982.938,183.071 C974.38,183.071 965.746,191.552 965.746,200.455 C965.746,206.787 970.274,210.969 976.145,210.969 C979.484,210.969 982.401,209.434 984.434,207.669 C988.003,204.522 988.656,201.03 988.656,200.915 C988.656,200.531 988.272,200.531 988.195,200.531 C987.965,200.531 987.773,200.608 987.696,200.915 C987.351,202.028 986.468,204.753 983.82,206.978 C981.172,209.127 978.755,209.78 976.759,209.78 C973.306,209.78 969.238,207.784 969.238,201.798 C969.238,199.61 970.044,193.394 973.881,188.904 C976.222,186.179 979.829,184.261 983.245,184.261 C987.159,184.261 989.423,187.215 989.423,191.667 C989.423,193.202 989.308,193.24 989.308,193.624 C989.308,194.008 989.73,194.008 989.884,194.008 C990.383,194.008 990.383,193.931 990.574,193.24 z" fill="#FFFFFF"/>
      <path d="M1005.467,211.475 L1005.467,210.507 L1002.485,210.507 L1002.485,198.527 C1002.485,197.963 1002.485,197.775 1001.894,197.775 C1001.571,197.775 1001.464,197.775 1001.195,198.151 L992.304,210.507 L992.304,211.475 L1000.201,211.475 L1000.201,213.677 C1000.201,214.591 1000.201,214.913 998.026,214.913 L997.3,214.913 L997.3,215.88 C998.643,215.826 1000.363,215.772 1001.33,215.772 C1002.324,215.772 1004.043,215.826 1005.386,215.88 L1005.386,214.913 L1004.661,214.913 C1002.485,214.913 1002.485,214.591 1002.485,213.677 L1002.485,211.475 z M1000.39,200.676 L1000.39,210.507 L993.298,210.507 z" fill="#FFFFFF"/>
      <path d="M643.309,167.75 L567.186,91.627" fill-opacity="0" stroke="#7491A3" stroke-width="1.535"/>
      <path d="M565.774,103.24 C568.651,98.302 568.198,94.159 566.643,91.084 C569.718,92.639 573.861,93.092 578.799,90.216" fill-opacity="0" stroke="#7491A3" stroke-width="1.535" stroke-linecap="round" stroke-linejoin="round"/>
      <path d="M940.495,200.393 L723.652,200.393" fill-opacity="0" stroke="#7491A3" stroke-width="1.535"/>
      <path d="M730.867,209.603 C729.408,204.077 726.159,201.468 722.884,200.393 C726.159,199.319 729.408,196.709 730.867,191.183" fill-opacity="0" stroke="#7491A3" stroke-width="1.535" stroke-linecap="round" stroke-linejoin="round"/>
      <path d="M954.017,167.75 L877.894,91.627" fill-opacity="0" stroke="#7491A3" stroke-width="1.535"/>
      <path d="M876.483,103.24 C879.359,98.302 878.906,94.159 877.351,91.084 C880.426,92.639 884.569,93.092 889.507,90.216" fill-opacity="0" stroke="#7491A3" stroke-width="1.535" stroke-linecap="round" stroke-linejoin="round"/>
      <path d="M1119.65,87.736 L1023.055,169.563" fill-opacity="0" stroke="#7491A3" stroke-width="1.535"/>
      <path d="M1034.512,171.927 C1029.828,168.653 1025.662,168.763 1022.469,170.059 C1024.273,167.123 1025.066,163.032 1022.607,157.873" fill-opacity="0" stroke="#7491A3" stroke-width="1.535" stroke-linecap="round" stroke-linejoin="round"/>
    </g>
  </g>
</svg>
